<svg width="261" height="171" viewBox="0 0 261 171" fill="none" xmlns="http://www.w3.org/2000/svg">
  <g clip-path="url(#clip0_27_946)">
    <path d="M42.8619 50.0524C43.034 49.8937 43.2215 49.7302 43.4258 49.5619C44.9136 48.3367 47.0603 47.053 49.8681 45.8014C55.4759 43.3016 63.3533 41.0913 72.8891 39.6623C91.9434 36.8069 117.207 37.1325 143.344 44.1357C169.48 51.139 191.522 63.4889 206.596 75.4889C214.14 81.4943 219.856 87.3473 223.463 92.3161C225.264 94.7972 226.48 96.977 227.156 98.7792C218.149 96.5864 207.346 99.4872 197.562 107.023C188.33 101.609 177.026 100.5 164.415 103.385C154.454 96.6375 142.493 94.8217 129.728 95.666C119.619 87.1799 107.932 84.0704 95.7617 84.8962C88.6374 76.1871 77.8346 72.0294 65.0374 71.6025C60.0797 59.0801 49.7754 52.7985 42.8619 50.0524Z" fill="#CBD0EA" stroke="#333E5B" stroke-width="6" stroke-linecap="round" stroke-linejoin="round" />
    <path d="M156.958 9.88046L95.3192 239.92" stroke="#333E5B" stroke-width="6" stroke-linecap="round" stroke-linejoin="round" />
    <path d="M66.8192 69.9427C66.9033 65.7876 75.6385 57.0561 82.2785 53.8929" stroke="black" stroke-opacity="0.3" stroke-width="6" stroke-linecap="round" />
    <path d="M96.3261 84.7568C98.4808 80.0205 103.3 69.8342 105.34 66.9801" stroke="black" stroke-opacity="0.3" stroke-width="6" stroke-linecap="round" />
    <path d="M199.82 105.049C201.825 101.408 198.625 89.4789 194.457 83.4196" stroke="black" stroke-opacity="0.3" stroke-width="6" stroke-linecap="round" />
    <path d="M166.859 103.125C167.361 97.9456 168.281 86.7143 167.941 83.2225" stroke="black" stroke-opacity="0.3" stroke-width="6" stroke-linecap="round" />
    <path d="M165.278 102.368C179.737 128.356 183.672 167.016 182.764 195.317C177.251 212.433 140.16 209.087 122.245 206.361C123.153 192.47 129.645 153.321 122.245 131.511C84.5994 126.603 74.783 109.117 74.783 97.1533C74.783 85.1895 83.9859 68.3175 108.834 66.4769C133.682 64.6363 150.819 76.3805 165.278 102.368Z" fill="white" stroke="#333E5B" stroke-width="6.86902" />
    <circle cx="120.008" cy="81.6392" r="3.50528" fill="#333E5B" />
    <circle cx="100.989" cy="76.1175" r="3.50528" fill="#333E5B" />
    <path d="M116.196 130.59C123.865 132.738 135.104 132.124 140.319 130.59" stroke="#333E5B" stroke-width="6.86902" stroke-linecap="round" />
    <path d="M117.486 12.4051C128.191 12.7374 139.945 13.9997 151.146 17.0009C162.327 19.9969 172.14 24.5068 181.603 29.5851C188.567 33.3226 194.922 37.5263 200.562 42.0674C203.862 44.7244 206.914 47.4953 209.699 50.354C223.609 64.6325 230.652 80.854 228.941 96.0876C218.616 85.3027 205.327 78.6637 188.755 75.0351C159.812 52.5362 126.041 43.7961 89.4469 48.4755C71.3145 44.2209 56.0806 42.7349 43.2638 46.2693C49.4136 32.2512 63.6106 21.7462 82.7691 16.3432C86.6102 15.26 90.6392 14.3866 94.8254 13.7354C101.98 12.6225 109.586 12.1598 117.486 12.4051Z" fill="#545C88" stroke="#333E5B" stroke-width="6" stroke-linecap="round" stroke-linejoin="round" />
    <path d="M90.849 47.6875C92.5855 33.2744 114.486 17.4495 145.176 15.4837" stroke="#333E5B" stroke-width="6" stroke-linecap="round" />
    <path d="M189.013 73.9903C194.715 60.64 185.874 37.6407 160.279 20.5934" stroke="#333E5B" stroke-width="6" stroke-linecap="round" />
  </g>
  <defs>
    <clipPath id="clip0_27_946">
      <rect width="261" height="171" fill="white" />
    </clipPath>
  </defs>
</svg>